<mxfile host="app.diagrams.net" modified="2023-06-14T09:26:34.917Z" agent="Mozilla/5.0 (Macintosh; Intel Mac OS X 10_15_7) AppleWebKit/537.36 (KHTML, like Gecko) Chrome/114.0.0.0 Safari/537.36" etag="QtdhZ8xks74OCR1oSplE" version="21.3.3" type="github">
  <diagram name="Page-1" id="74e2e168-ea6b-b213-b513-2b3c1d86103e">
    <mxGraphModel dx="954" dy="562" grid="1" gridSize="10" guides="1" tooltips="1" connect="1" arrows="1" fold="1" page="1" pageScale="1" pageWidth="1100" pageHeight="850" background="none" math="0" shadow="0">
      <root>
        <mxCell id="0" />
        <mxCell id="1" parent="0" />
        <mxCell id="77e6c97f196da883-1" value="数据同步服务拆分" style="swimlane;html=1;childLayout=stackLayout;startSize=20;rounded=0;shadow=0;labelBackgroundColor=none;strokeWidth=1;fontFamily=Verdana;fontSize=8;align=center;" parent="1" vertex="1">
          <mxGeometry x="170" y="20" width="620" height="570" as="geometry" />
        </mxCell>
        <mxCell id="77e6c97f196da883-2" value="教育号" style="swimlane;html=1;startSize=20;" parent="77e6c97f196da883-1" vertex="1">
          <mxGeometry y="20" width="220" height="550" as="geometry" />
        </mxCell>
        <mxCell id="77e6c97f196da883-9" value="数据变更" style="rounded=1;whiteSpace=wrap;html=1;shadow=0;labelBackgroundColor=none;strokeWidth=1;fontFamily=Verdana;fontSize=8;align=center;" parent="77e6c97f196da883-2" vertex="1">
          <mxGeometry x="25" y="130" width="100" height="45" as="geometry" />
        </mxCell>
        <mxCell id="oI8LK7FcHioq1niFDl35-37" style="edgeStyle=orthogonalEdgeStyle;rounded=0;orthogonalLoop=1;jettySize=auto;html=1;" edge="1" parent="77e6c97f196da883-2" source="oI8LK7FcHioq1niFDl35-36" target="77e6c97f196da883-9">
          <mxGeometry relative="1" as="geometry" />
        </mxCell>
        <mxCell id="oI8LK7FcHioq1niFDl35-36" value="开始" style="strokeWidth=1;html=1;shape=mxgraph.flowchart.start_1;whiteSpace=wrap;" vertex="1" parent="77e6c97f196da883-2">
          <mxGeometry x="30" y="50" width="90" height="40" as="geometry" />
        </mxCell>
        <mxCell id="oI8LK7FcHioq1niFDl35-44" value="结束" style="strokeWidth=1;html=1;shape=mxgraph.flowchart.start_1;whiteSpace=wrap;" vertex="1" parent="77e6c97f196da883-2">
          <mxGeometry x="40" y="230" width="90" height="40" as="geometry" />
        </mxCell>
        <mxCell id="oI8LK7FcHioq1niFDl35-54" value="结束" style="strokeWidth=1;html=1;shape=mxgraph.flowchart.start_1;whiteSpace=wrap;" vertex="1" parent="77e6c97f196da883-2">
          <mxGeometry x="40" y="452.5" width="90" height="40" as="geometry" />
        </mxCell>
        <mxCell id="77e6c97f196da883-40" style="edgeStyle=orthogonalEdgeStyle;rounded=1;html=1;labelBackgroundColor=none;startArrow=none;startFill=0;startSize=5;endArrow=classicThin;endFill=1;endSize=5;jettySize=auto;orthogonalLoop=1;strokeWidth=1;fontFamily=Verdana;fontSize=8" parent="77e6c97f196da883-1" target="77e6c97f196da883-24" edge="1">
          <mxGeometry relative="1" as="geometry">
            <mxPoint x="770" y="690" as="sourcePoint" />
          </mxGeometry>
        </mxCell>
        <mxCell id="77e6c97f196da883-3" value="网关" style="swimlane;html=1;startSize=20;" parent="77e6c97f196da883-1" vertex="1">
          <mxGeometry x="220" y="20" width="220" height="550" as="geometry" />
        </mxCell>
        <mxCell id="oI8LK7FcHioq1niFDl35-43" style="edgeStyle=orthogonalEdgeStyle;rounded=0;orthogonalLoop=1;jettySize=auto;html=1;entryX=0.5;entryY=0;entryDx=0;entryDy=0;entryPerimeter=0;" edge="1" parent="77e6c97f196da883-3" source="oI8LK7FcHioq1niFDl35-38" target="oI8LK7FcHioq1niFDl35-42">
          <mxGeometry relative="1" as="geometry" />
        </mxCell>
        <mxCell id="oI8LK7FcHioq1niFDl35-38" value="拦截校验" style="rounded=1;whiteSpace=wrap;html=1;shadow=0;labelBackgroundColor=none;strokeWidth=1;fontFamily=Verdana;fontSize=8;align=center;" vertex="1" parent="77e6c97f196da883-3">
          <mxGeometry x="50" y="130" width="100" height="45" as="geometry" />
        </mxCell>
        <mxCell id="oI8LK7FcHioq1niFDl35-48" style="edgeStyle=orthogonalEdgeStyle;rounded=0;orthogonalLoop=1;jettySize=auto;html=1;" edge="1" parent="77e6c97f196da883-3" source="oI8LK7FcHioq1niFDl35-42" target="oI8LK7FcHioq1niFDl35-47">
          <mxGeometry relative="1" as="geometry" />
        </mxCell>
        <mxCell id="oI8LK7FcHioq1niFDl35-42" value="应用是否有效" style="strokeWidth=1;html=1;shape=mxgraph.flowchart.decision;whiteSpace=wrap;" vertex="1" parent="77e6c97f196da883-3">
          <mxGeometry x="55" y="215" width="90" height="70" as="geometry" />
        </mxCell>
        <mxCell id="oI8LK7FcHioq1niFDl35-47" value="服务转发" style="rounded=1;whiteSpace=wrap;html=1;shadow=0;labelBackgroundColor=none;strokeWidth=1;fontFamily=Verdana;fontSize=8;align=center;" vertex="1" parent="77e6c97f196da883-3">
          <mxGeometry x="50" y="330" width="100" height="45" as="geometry" />
        </mxCell>
        <mxCell id="77e6c97f196da883-4" value="数据同步服务" style="swimlane;html=1;startSize=20;" parent="77e6c97f196da883-1" vertex="1">
          <mxGeometry x="440" y="20" width="180" height="550" as="geometry" />
        </mxCell>
        <mxCell id="oI8LK7FcHioq1niFDl35-53" style="edgeStyle=orthogonalEdgeStyle;rounded=0;orthogonalLoop=1;jettySize=auto;html=1;" edge="1" parent="77e6c97f196da883-4" source="oI8LK7FcHioq1niFDl35-49" target="oI8LK7FcHioq1niFDl35-52">
          <mxGeometry relative="1" as="geometry" />
        </mxCell>
        <mxCell id="oI8LK7FcHioq1niFDl35-49" value="同步业务处理" style="rounded=1;whiteSpace=wrap;html=1;shadow=0;labelBackgroundColor=none;strokeWidth=1;fontFamily=Verdana;fontSize=8;align=center;" vertex="1" parent="77e6c97f196da883-4">
          <mxGeometry x="40" y="330" width="100" height="45" as="geometry" />
        </mxCell>
        <mxCell id="oI8LK7FcHioq1niFDl35-52" value="处理结果" style="rounded=1;whiteSpace=wrap;html=1;shadow=0;labelBackgroundColor=none;strokeWidth=1;fontFamily=Verdana;fontSize=8;align=center;" vertex="1" parent="77e6c97f196da883-4">
          <mxGeometry x="40" y="450" width="100" height="45" as="geometry" />
        </mxCell>
        <mxCell id="oI8LK7FcHioq1niFDl35-40" style="edgeStyle=orthogonalEdgeStyle;rounded=0;orthogonalLoop=1;jettySize=auto;html=1;" edge="1" parent="77e6c97f196da883-1" source="77e6c97f196da883-9" target="oI8LK7FcHioq1niFDl35-38">
          <mxGeometry relative="1" as="geometry" />
        </mxCell>
        <mxCell id="oI8LK7FcHioq1niFDl35-41" value="推送消息" style="edgeLabel;html=1;align=center;verticalAlign=middle;resizable=0;points=[];" vertex="1" connectable="0" parent="oI8LK7FcHioq1niFDl35-40">
          <mxGeometry x="-0.131" y="2" relative="1" as="geometry">
            <mxPoint y="1" as="offset" />
          </mxGeometry>
        </mxCell>
        <mxCell id="oI8LK7FcHioq1niFDl35-45" style="edgeStyle=orthogonalEdgeStyle;rounded=0;orthogonalLoop=1;jettySize=auto;html=1;" edge="1" parent="77e6c97f196da883-1" source="oI8LK7FcHioq1niFDl35-42" target="oI8LK7FcHioq1niFDl35-44">
          <mxGeometry relative="1" as="geometry" />
        </mxCell>
        <mxCell id="oI8LK7FcHioq1niFDl35-46" value="否" style="edgeLabel;html=1;align=center;verticalAlign=middle;resizable=0;points=[];" vertex="1" connectable="0" parent="oI8LK7FcHioq1niFDl35-45">
          <mxGeometry x="-0.1172" relative="1" as="geometry">
            <mxPoint as="offset" />
          </mxGeometry>
        </mxCell>
        <mxCell id="oI8LK7FcHioq1niFDl35-50" style="edgeStyle=orthogonalEdgeStyle;rounded=0;orthogonalLoop=1;jettySize=auto;html=1;" edge="1" parent="77e6c97f196da883-1" source="oI8LK7FcHioq1niFDl35-47" target="oI8LK7FcHioq1niFDl35-49">
          <mxGeometry relative="1" as="geometry" />
        </mxCell>
        <mxCell id="oI8LK7FcHioq1niFDl35-55" style="edgeStyle=orthogonalEdgeStyle;rounded=0;orthogonalLoop=1;jettySize=auto;html=1;entryX=1;entryY=0.5;entryDx=0;entryDy=0;entryPerimeter=0;" edge="1" parent="77e6c97f196da883-1" source="oI8LK7FcHioq1niFDl35-52" target="oI8LK7FcHioq1niFDl35-54">
          <mxGeometry relative="1" as="geometry">
            <mxPoint x="120" y="500" as="targetPoint" />
          </mxGeometry>
        </mxCell>
        <mxCell id="oI8LK7FcHioq1niFDl35-56" value="返回处理结果" style="edgeLabel;html=1;align=center;verticalAlign=middle;resizable=0;points=[];" vertex="1" connectable="0" parent="oI8LK7FcHioq1niFDl35-55">
          <mxGeometry x="-0.04" y="1" relative="1" as="geometry">
            <mxPoint as="offset" />
          </mxGeometry>
        </mxCell>
        <mxCell id="oI8LK7FcHioq1niFDl35-1" value="Pool" style="swimlane;html=1;childLayout=stackLayout;startSize=20;rounded=0;shadow=0;labelBackgroundColor=none;strokeWidth=1;fontFamily=Verdana;fontSize=8;align=center;" vertex="1" parent="1">
          <mxGeometry x="60" y="890" width="640" height="750" as="geometry" />
        </mxCell>
        <mxCell id="oI8LK7FcHioq1niFDl35-2" value="教育号" style="swimlane;html=1;startSize=20;" vertex="1" parent="oI8LK7FcHioq1niFDl35-1">
          <mxGeometry y="20" width="160" height="730" as="geometry" />
        </mxCell>
        <mxCell id="oI8LK7FcHioq1niFDl35-3" value="" style="rounded=1;whiteSpace=wrap;html=1;shadow=0;labelBackgroundColor=none;strokeWidth=1;fontFamily=Verdana;fontSize=8;align=center;" vertex="1" parent="oI8LK7FcHioq1niFDl35-2">
          <mxGeometry x="20" y="65" width="100" height="60" as="geometry" />
        </mxCell>
        <mxCell id="oI8LK7FcHioq1niFDl35-4" value="" style="rounded=1;whiteSpace=wrap;html=1;shadow=0;labelBackgroundColor=none;strokeWidth=1;fontFamily=Verdana;fontSize=8;align=center;" vertex="1" parent="oI8LK7FcHioq1niFDl35-2">
          <mxGeometry x="20" y="155" width="100" height="60" as="geometry" />
        </mxCell>
        <mxCell id="oI8LK7FcHioq1niFDl35-5" value="" style="rounded=1;whiteSpace=wrap;html=1;shadow=0;labelBackgroundColor=none;strokeWidth=1;fontFamily=Verdana;fontSize=8;align=center;" vertex="1" parent="oI8LK7FcHioq1niFDl35-2">
          <mxGeometry x="30" y="560" width="100" height="60" as="geometry" />
        </mxCell>
        <mxCell id="oI8LK7FcHioq1niFDl35-6" style="edgeStyle=orthogonalEdgeStyle;rounded=1;html=1;labelBackgroundColor=none;startArrow=none;startFill=0;startSize=5;endArrow=classicThin;endFill=1;endSize=5;jettySize=auto;orthogonalLoop=1;strokeWidth=1;fontFamily=Verdana;fontSize=8" edge="1" parent="oI8LK7FcHioq1niFDl35-1" source="oI8LK7FcHioq1niFDl35-3" target="oI8LK7FcHioq1niFDl35-21">
          <mxGeometry relative="1" as="geometry" />
        </mxCell>
        <mxCell id="oI8LK7FcHioq1niFDl35-7" style="edgeStyle=orthogonalEdgeStyle;rounded=1;html=1;labelBackgroundColor=none;startArrow=none;startFill=0;startSize=5;endArrow=classicThin;endFill=1;endSize=5;jettySize=auto;orthogonalLoop=1;strokeWidth=1;fontFamily=Verdana;fontSize=8" edge="1" parent="oI8LK7FcHioq1niFDl35-1" source="oI8LK7FcHioq1niFDl35-21" target="oI8LK7FcHioq1niFDl35-4">
          <mxGeometry relative="1" as="geometry">
            <Array as="points">
              <mxPoint x="240" y="155" />
              <mxPoint x="70" y="155" />
            </Array>
          </mxGeometry>
        </mxCell>
        <mxCell id="oI8LK7FcHioq1niFDl35-8" style="edgeStyle=orthogonalEdgeStyle;rounded=1;html=1;labelBackgroundColor=none;startArrow=none;startFill=0;startSize=5;endArrow=classicThin;endFill=1;endSize=5;jettySize=auto;orthogonalLoop=1;strokeWidth=1;fontFamily=Verdana;fontSize=8" edge="1" parent="oI8LK7FcHioq1niFDl35-1" source="oI8LK7FcHioq1niFDl35-4" target="oI8LK7FcHioq1niFDl35-23">
          <mxGeometry relative="1" as="geometry" />
        </mxCell>
        <mxCell id="oI8LK7FcHioq1niFDl35-9" style="edgeStyle=orthogonalEdgeStyle;rounded=1;html=1;labelBackgroundColor=none;startArrow=none;startFill=0;startSize=5;endArrow=classicThin;endFill=1;endSize=5;jettySize=auto;orthogonalLoop=1;strokeWidth=1;fontFamily=Verdana;fontSize=8" edge="1" parent="oI8LK7FcHioq1niFDl35-1" source="oI8LK7FcHioq1niFDl35-24" target="oI8LK7FcHioq1niFDl35-4">
          <mxGeometry relative="1" as="geometry" />
        </mxCell>
        <mxCell id="oI8LK7FcHioq1niFDl35-10" style="edgeStyle=orthogonalEdgeStyle;rounded=1;html=1;labelBackgroundColor=none;startArrow=none;startFill=0;startSize=5;endArrow=classicThin;endFill=1;endSize=5;jettySize=auto;orthogonalLoop=1;strokeWidth=1;fontFamily=Verdana;fontSize=8" edge="1" parent="oI8LK7FcHioq1niFDl35-1" source="oI8LK7FcHioq1niFDl35-29" target="oI8LK7FcHioq1niFDl35-4">
          <mxGeometry relative="1" as="geometry" />
        </mxCell>
        <mxCell id="oI8LK7FcHioq1niFDl35-11" style="edgeStyle=orthogonalEdgeStyle;rounded=1;html=1;labelBackgroundColor=none;startArrow=none;startFill=0;startSize=5;endArrow=classicThin;endFill=1;endSize=5;jettySize=auto;orthogonalLoop=1;strokeWidth=1;fontFamily=Verdana;fontSize=8" edge="1" parent="oI8LK7FcHioq1niFDl35-1" source="oI8LK7FcHioq1niFDl35-32" target="oI8LK7FcHioq1niFDl35-4">
          <mxGeometry relative="1" as="geometry">
            <Array as="points">
              <mxPoint x="20" y="690" />
              <mxPoint x="20" y="370" />
              <mxPoint x="70" y="370" />
            </Array>
          </mxGeometry>
        </mxCell>
        <mxCell id="oI8LK7FcHioq1niFDl35-12" style="edgeStyle=orthogonalEdgeStyle;rounded=1;html=1;labelBackgroundColor=none;startArrow=none;startFill=0;startSize=5;endArrow=classicThin;endFill=1;endSize=5;jettySize=auto;orthogonalLoop=1;strokeWidth=1;fontFamily=Verdana;fontSize=8" edge="1" parent="oI8LK7FcHioq1niFDl35-1" source="oI8LK7FcHioq1niFDl35-24" target="oI8LK7FcHioq1niFDl35-28">
          <mxGeometry relative="1" as="geometry" />
        </mxCell>
        <mxCell id="oI8LK7FcHioq1niFDl35-13" style="edgeStyle=orthogonalEdgeStyle;rounded=1;html=1;labelBackgroundColor=none;startArrow=none;startFill=0;startSize=5;endArrow=classicThin;endFill=1;endSize=5;jettySize=auto;orthogonalLoop=1;strokeWidth=1;fontFamily=Verdana;fontSize=8" edge="1" parent="oI8LK7FcHioq1niFDl35-1" source="oI8LK7FcHioq1niFDl35-32">
          <mxGeometry relative="1" as="geometry">
            <mxPoint x="670" y="690" as="targetPoint" />
          </mxGeometry>
        </mxCell>
        <mxCell id="oI8LK7FcHioq1niFDl35-14" style="edgeStyle=orthogonalEdgeStyle;rounded=1;html=1;labelBackgroundColor=none;startArrow=none;startFill=0;startSize=5;endArrow=classicThin;endFill=1;endSize=5;jettySize=auto;orthogonalLoop=1;strokeWidth=1;fontFamily=Verdana;fontSize=8" edge="1" parent="oI8LK7FcHioq1niFDl35-1">
          <mxGeometry relative="1" as="geometry">
            <mxPoint x="770" y="690" as="sourcePoint" />
          </mxGeometry>
        </mxCell>
        <mxCell id="oI8LK7FcHioq1niFDl35-15" style="edgeStyle=orthogonalEdgeStyle;rounded=1;html=1;labelBackgroundColor=none;startArrow=none;startFill=0;startSize=5;endArrow=classicThin;endFill=1;endSize=5;jettySize=auto;orthogonalLoop=1;strokeWidth=1;fontFamily=Verdana;fontSize=8" edge="1" parent="oI8LK7FcHioq1niFDl35-1" target="oI8LK7FcHioq1niFDl35-25">
          <mxGeometry relative="1" as="geometry">
            <Array as="points">
              <mxPoint x="660" y="610" />
              <mxPoint x="660" y="550" />
              <mxPoint x="400" y="550" />
            </Array>
            <mxPoint x="670" y="610" as="sourcePoint" />
          </mxGeometry>
        </mxCell>
        <mxCell id="oI8LK7FcHioq1niFDl35-16" style="edgeStyle=orthogonalEdgeStyle;rounded=1;html=1;labelBackgroundColor=none;startArrow=none;startFill=0;startSize=5;endArrow=classicThin;endFill=1;endSize=5;jettySize=auto;orthogonalLoop=1;strokeColor=#000000;strokeWidth=1;fontFamily=Verdana;fontSize=8;fontColor=#000000;" edge="1" parent="oI8LK7FcHioq1niFDl35-1" target="oI8LK7FcHioq1niFDl35-31">
          <mxGeometry relative="1" as="geometry">
            <mxPoint x="670" y="610" as="sourcePoint" />
          </mxGeometry>
        </mxCell>
        <mxCell id="oI8LK7FcHioq1niFDl35-17" style="edgeStyle=orthogonalEdgeStyle;rounded=1;html=1;labelBackgroundColor=none;startArrow=none;startFill=0;startSize=5;endArrow=classicThin;endFill=1;endSize=5;jettySize=auto;orthogonalLoop=1;strokeWidth=1;fontFamily=Verdana;fontSize=8" edge="1" parent="oI8LK7FcHioq1niFDl35-1" target="oI8LK7FcHioq1niFDl35-5">
          <mxGeometry relative="1" as="geometry">
            <Array as="points">
              <mxPoint x="660" y="610" />
              <mxPoint x="660" y="550" />
              <mxPoint x="80" y="550" />
            </Array>
            <mxPoint x="670" y="610" as="sourcePoint" />
          </mxGeometry>
        </mxCell>
        <mxCell id="oI8LK7FcHioq1niFDl35-18" style="edgeStyle=orthogonalEdgeStyle;rounded=1;html=1;labelBackgroundColor=none;startArrow=none;startFill=0;startSize=5;endArrow=classicThin;endFill=1;endSize=5;jettySize=auto;orthogonalLoop=1;strokeWidth=1;fontFamily=Verdana;fontSize=8" edge="1" parent="oI8LK7FcHioq1niFDl35-1" source="oI8LK7FcHioq1niFDl35-5" target="oI8LK7FcHioq1niFDl35-31">
          <mxGeometry relative="1" as="geometry">
            <Array as="points">
              <mxPoint x="80" y="650" />
              <mxPoint x="490" y="650" />
              <mxPoint x="490" y="610" />
            </Array>
          </mxGeometry>
        </mxCell>
        <mxCell id="oI8LK7FcHioq1niFDl35-19" style="edgeStyle=orthogonalEdgeStyle;rounded=1;html=1;labelBackgroundColor=none;startArrow=none;startFill=0;startSize=5;endArrow=classicThin;endFill=1;endSize=5;jettySize=auto;orthogonalLoop=1;strokeWidth=1;fontFamily=Verdana;fontSize=8" edge="1" parent="oI8LK7FcHioq1niFDl35-1" source="oI8LK7FcHioq1niFDl35-25" target="oI8LK7FcHioq1niFDl35-31">
          <mxGeometry relative="1" as="geometry" />
        </mxCell>
        <mxCell id="oI8LK7FcHioq1niFDl35-20" value="网关" style="swimlane;html=1;startSize=20;" vertex="1" parent="oI8LK7FcHioq1niFDl35-1">
          <mxGeometry x="160" y="20" width="160" height="730" as="geometry" />
        </mxCell>
        <mxCell id="oI8LK7FcHioq1niFDl35-21" value="" style="rounded=1;whiteSpace=wrap;html=1;shadow=0;labelBackgroundColor=none;strokeWidth=1;fontFamily=Verdana;fontSize=8;align=center;" vertex="1" parent="oI8LK7FcHioq1niFDl35-20">
          <mxGeometry x="30" y="65" width="100" height="60" as="geometry" />
        </mxCell>
        <mxCell id="oI8LK7FcHioq1niFDl35-22" value="数据同步服务" style="swimlane;html=1;startSize=20;" vertex="1" parent="oI8LK7FcHioq1niFDl35-1">
          <mxGeometry x="320" y="20" width="160" height="730" as="geometry" />
        </mxCell>
        <mxCell id="oI8LK7FcHioq1niFDl35-23" value="" style="rounded=1;whiteSpace=wrap;html=1;shadow=0;labelBackgroundColor=none;strokeWidth=1;fontFamily=Verdana;fontSize=8;align=center;" vertex="1" parent="oI8LK7FcHioq1niFDl35-22">
          <mxGeometry x="30" y="155" width="100" height="60" as="geometry" />
        </mxCell>
        <mxCell id="oI8LK7FcHioq1niFDl35-24" value="" style="rhombus;whiteSpace=wrap;html=1;rounded=0;shadow=0;labelBackgroundColor=none;strokeWidth=1;fontFamily=Verdana;fontSize=8;align=center;" vertex="1" parent="oI8LK7FcHioq1niFDl35-22">
          <mxGeometry x="40" y="240" width="80" height="60" as="geometry" />
        </mxCell>
        <mxCell id="oI8LK7FcHioq1niFDl35-25" value="" style="rounded=1;whiteSpace=wrap;html=1;shadow=0;labelBackgroundColor=none;strokeWidth=1;fontFamily=Verdana;fontSize=8;align=center;" vertex="1" parent="oI8LK7FcHioq1niFDl35-22">
          <mxGeometry x="30" y="560" width="100" height="60" as="geometry" />
        </mxCell>
        <mxCell id="oI8LK7FcHioq1niFDl35-26" style="edgeStyle=orthogonalEdgeStyle;rounded=1;html=1;labelBackgroundColor=none;startArrow=none;startFill=0;startSize=5;endArrow=classicThin;endFill=1;endSize=5;jettySize=auto;orthogonalLoop=1;strokeWidth=1;fontFamily=Verdana;fontSize=8" edge="1" parent="oI8LK7FcHioq1niFDl35-22" source="oI8LK7FcHioq1niFDl35-23" target="oI8LK7FcHioq1niFDl35-24">
          <mxGeometry relative="1" as="geometry" />
        </mxCell>
        <mxCell id="oI8LK7FcHioq1niFDl35-27" value="Lane 4" style="swimlane;html=1;startSize=20;" vertex="1" parent="oI8LK7FcHioq1niFDl35-1">
          <mxGeometry x="480" y="20" width="160" height="730" as="geometry" />
        </mxCell>
        <mxCell id="oI8LK7FcHioq1niFDl35-28" value="" style="rounded=1;whiteSpace=wrap;html=1;shadow=0;labelBackgroundColor=none;strokeWidth=1;fontFamily=Verdana;fontSize=8;align=center;" vertex="1" parent="oI8LK7FcHioq1niFDl35-27">
          <mxGeometry x="30" y="240" width="100" height="60" as="geometry" />
        </mxCell>
        <mxCell id="oI8LK7FcHioq1niFDl35-29" value="" style="rhombus;whiteSpace=wrap;html=1;rounded=0;shadow=0;labelBackgroundColor=none;strokeWidth=1;fontFamily=Verdana;fontSize=8;align=center;" vertex="1" parent="oI8LK7FcHioq1niFDl35-27">
          <mxGeometry x="40" y="320" width="80" height="60" as="geometry" />
        </mxCell>
        <mxCell id="oI8LK7FcHioq1niFDl35-30" value="" style="rounded=1;whiteSpace=wrap;html=1;shadow=0;labelBackgroundColor=none;strokeWidth=1;fontFamily=Verdana;fontSize=8;align=center;" vertex="1" parent="oI8LK7FcHioq1niFDl35-27">
          <mxGeometry x="30" y="400" width="100" height="60" as="geometry" />
        </mxCell>
        <mxCell id="oI8LK7FcHioq1niFDl35-31" value="" style="rounded=1;whiteSpace=wrap;html=1;shadow=0;labelBackgroundColor=none;strokeWidth=1;fontFamily=Verdana;fontSize=8;align=center;" vertex="1" parent="oI8LK7FcHioq1niFDl35-27">
          <mxGeometry x="30" y="560" width="100" height="60" as="geometry" />
        </mxCell>
        <mxCell id="oI8LK7FcHioq1niFDl35-32" value="" style="rhombus;whiteSpace=wrap;html=1;rounded=0;shadow=0;labelBackgroundColor=none;strokeWidth=1;fontFamily=Verdana;fontSize=8;align=center;" vertex="1" parent="oI8LK7FcHioq1niFDl35-27">
          <mxGeometry x="40" y="640" width="80" height="60" as="geometry" />
        </mxCell>
        <mxCell id="oI8LK7FcHioq1niFDl35-33" style="edgeStyle=orthogonalEdgeStyle;rounded=1;html=1;labelBackgroundColor=none;startArrow=none;startFill=0;startSize=5;endArrow=classicThin;endFill=1;endSize=5;jettySize=auto;orthogonalLoop=1;strokeColor=#000000;strokeWidth=1;fontFamily=Verdana;fontSize=8;fontColor=#000000;" edge="1" parent="oI8LK7FcHioq1niFDl35-27" source="oI8LK7FcHioq1niFDl35-28" target="oI8LK7FcHioq1niFDl35-29">
          <mxGeometry relative="1" as="geometry" />
        </mxCell>
        <mxCell id="oI8LK7FcHioq1niFDl35-34" style="edgeStyle=orthogonalEdgeStyle;rounded=1;html=1;labelBackgroundColor=none;startArrow=none;startFill=0;startSize=5;endArrow=classicThin;endFill=1;endSize=5;jettySize=auto;orthogonalLoop=1;strokeWidth=1;fontFamily=Verdana;fontSize=8" edge="1" parent="oI8LK7FcHioq1niFDl35-27" source="oI8LK7FcHioq1niFDl35-29" target="oI8LK7FcHioq1niFDl35-30">
          <mxGeometry relative="1" as="geometry" />
        </mxCell>
        <mxCell id="oI8LK7FcHioq1niFDl35-35" style="edgeStyle=orthogonalEdgeStyle;rounded=1;html=1;labelBackgroundColor=none;startArrow=none;startFill=0;startSize=5;endArrow=classicThin;endFill=1;endSize=5;jettySize=auto;orthogonalLoop=1;strokeWidth=1;fontFamily=Verdana;fontSize=8" edge="1" parent="oI8LK7FcHioq1niFDl35-27" source="oI8LK7FcHioq1niFDl35-31" target="oI8LK7FcHioq1niFDl35-32">
          <mxGeometry relative="1" as="geometry" />
        </mxCell>
      </root>
    </mxGraphModel>
  </diagram>
</mxfile>
